<?xml version="1.0" encoding="utf-8"?>
<!-- Generator: Adobe Illustrator 21.0.2, SVG Export Plug-In . SVG Version: 6.00 Build 0)  -->
<!DOCTYPE svg PUBLIC "-//W3C//DTD SVG 1.1//EN" "http://www.w3.org/Graphics/SVG/1.1/DTD/svg11.dtd">
<svg version="1.1" id="レイヤー_1" xmlns="http://www.w3.org/2000/svg" xmlns:xlink="http://www.w3.org/1999/xlink" x="0px"
	 y="0px" viewBox="0 0 59 48" style="enable-background:new 0 0 59 48;" xml:space="preserve">
<style type="text/css">
	.st0{fill:#707070;}
</style>
<title>icon_twitter</title>
<path id="シェイプ_4" class="st0" d="M59,5.7c-2.2,1-4.6,1.6-7,1.9c2.5-1.5,4.5-3.9,5.4-6.7c-2.4,1.4-5,2.4-7.7,2.9
	c-4.6-4.9-12.3-5.1-17.1-0.5c-3.1,3-4.5,7.4-3.5,11.6C19.3,14.4,10.3,9.8,4.1,2.2C0.9,7.7,2.5,14.8,7.8,18.4
	c-1.9-0.1-3.8-0.6-5.5-1.5V17c0,5.8,4.1,10.7,9.7,11.9c-1.8,0.5-3.7,0.6-5.5,0.2c1.6,4.9,6.1,8.3,11.3,8.4c-4.3,3.4-9.6,5.2-15,5.2
	c-1,0-2,0-2.9-0.1C5.5,46.1,12,48,18.6,48C40.8,48,53,29.5,53,13.5c0-0.5,0-1,0-1.6C55.4,10.2,57.4,8.1,59,5.7z"/>
</svg>
