<?xml version="1.0" encoding="utf-8"?>
<!-- Generator: Adobe Illustrator 21.0.2, SVG Export Plug-In . SVG Version: 6.00 Build 0)  -->
<!DOCTYPE svg PUBLIC "-//W3C//DTD SVG 1.1//EN" "http://www.w3.org/Graphics/SVG/1.1/DTD/svg11.dtd">
<svg version="1.1" id="レイヤー_1" xmlns="http://www.w3.org/2000/svg" xmlns:xlink="http://www.w3.org/1999/xlink" x="0px"
	 y="0px" viewBox="0 0 40 40" style="enable-background:new 0 0 40 40;" xml:space="preserve">
<style type="text/css">
	.st0{stroke:#000000;stroke-width:4;stroke-miterlimit:10;}
</style>
<path class="st0" d="M19.2,37.2L19.2,37.2c0-0.2,0.1-0.4,0.2-0.5L36.2,20L19.5,3.2c-0.6-0.7,0.4-1.7,1.1-1.1l17.2,17.2
	c0.3,0.3,0.3,0.8,0,1.1L20.5,37.7C20.1,38.2,19.2,37.9,19.2,37.2z"/>
<path class="st0" d="M2,20L2,20c0-0.4,0.3-0.8,0.8-0.8h34.5c1,0,1,1.5,0,1.5H2.8C2.3,20.7,2,20.4,2,20z"/>
</svg>
