<svg id="レイヤー_1" data-name="レイヤー 1" xmlns="http://www.w3.org/2000/svg" viewBox="0 0 59 47.98"><defs><style>.cls-1{fill:#fff;}</style></defs><title>icon_twitter</title><path id="シェイプ_4" data-name="シェイプ 4" class="cls-1" d="M59,5.68a24.17,24.17,0,0,1-7,1.91A12.15,12.15,0,0,0,57.37.88a24.21,24.21,0,0,1-7.69,2.94A12.12,12.12,0,0,0,29.06,14.88,34.36,34.36,0,0,1,4.11,2.22,12.14,12.14,0,0,0,7.85,18.4a12,12,0,0,1-5.48-1.52V17a12.12,12.12,0,0,0,9.71,11.88,12,12,0,0,1-5.47.21,12.12,12.12,0,0,0,11.31,8.42,24.26,24.26,0,0,1-15,5.18A25,25,0,0,1,0,42.56,34.3,34.3,0,0,0,18.56,48C40.82,48,53,29.54,53,13.52q0-.79,0-1.57A24.55,24.55,0,0,0,59,5.68Z" transform="translate(0 -0.02)"/></svg>