<svg xmlns="http://www.w3.org/2000/svg" width="79.5" height="31.501" viewBox="0 0 79.5 31.501">
  <metadata><?xpacket begin="﻿" id="W5M0MpCehiHzreSzNTczkc9d"?>
<x:xmpmeta xmlns:x="adobe:ns:meta/" x:xmptk="Adobe XMP Core 5.6-c138 79.159824, 2016/09/14-01:09:01        ">
   <rdf:RDF xmlns:rdf="http://www.w3.org/1999/02/22-rdf-syntax-ns#">
      <rdf:Description rdf:about=""/>
   </rdf:RDF>
</x:xmpmeta>
                                                                                                    
                                                                                                    
                                                                                                    
                                                                                                    
                                                                                                    
                                                                                                    
                                                                                                    
                                                                                                    
                                                                                                    
                                                                                                    
                                                                                                    
                                                                                                    
                                                                                                    
                                                                                                    
                                                                                                    
                                                                                                    
                                                                                                    
                                                                                                    
                                                                                                    
                                                                                                    
                           
<?xpacket end="w"?></metadata>
<defs>
    <style>
      .cls-1 {
        fill: #fff;
        fill-rule: evenodd;
      }
    </style>
  </defs>
  <path id="シェイプ_6" data-name="シェイプ 6" class="cls-1" d="M574.749,983.179a3.828,3.828,0,0,1,.784-2.512,2.761,2.761,0,0,1,4.165,0,3.889,3.889,0,0,1,.766,2.512v21.651h9.55a3.029,3.029,0,0,1,2.128.76,3.18,3.18,0,0,1,0,4.3,3.029,3.029,0,0,1-2.128.76H578.1a3.215,3.215,0,0,1-2.493-.93,4.549,4.549,0,0,1-.853-3.12V983.179Zm21.3,0a3.823,3.823,0,0,1,.785-2.512,2.761,2.761,0,0,1,4.165,0,3.9,3.9,0,0,1,.767,2.512v24.561a3.882,3.882,0,0,1-.767,2.51,2.757,2.757,0,0,1-4.165,0,3.81,3.81,0,0,1-.785-2.51V983.179Zm10.909,0.592a4.52,4.52,0,0,1,.873-3.1,3.521,3.521,0,0,1,2.718-.948,3,3,0,0,1,2.859,1.817l10,19.534h0.068V983.052q0-3.329,2.753-3.333t2.754,3.333V1006.9a5.419,5.419,0,0,1-.8,3.21,3,3,0,0,1-2.579,1.09,3.806,3.806,0,0,1-1.952-.38,3.484,3.484,0,0,1-1.184-1.48l-9.934-18.987h-0.07v17.517q0,3.33-2.752,3.33t-2.757-3.33v-24.1Zm27.361,0.548a4.585,4.585,0,0,1,.853-3.122,3.215,3.215,0,0,1,2.493-.927h13.421a3.32,3.32,0,0,1,2.143.61,3.5,3.5,0,0,1,0,4.325,3.226,3.226,0,0,1-2.143.633H640.033v6.583h9.688a3.08,3.08,0,0,1,1.97.571,3.379,3.379,0,0,1,0,4.155,3,3,0,0,1-1.97.592h-9.688v7.341H651.36a3.308,3.308,0,0,1,2.144.62,3.493,3.493,0,0,1,0,4.32,3.252,3.252,0,0,1-2.144.63h-13.7a3.22,3.22,0,0,1-2.493-.93,4.565,4.565,0,0,1-.853-3.12V984.319Z" transform="translate(-574.75 -979.719)"/>
</svg>
