<?xml version="1.0" encoding="utf-8"?>
<!-- Generator: Adobe Illustrator 21.0.2, SVG Export Plug-In . SVG Version: 6.00 Build 0)  -->
<!DOCTYPE svg PUBLIC "-//W3C//DTD SVG 1.1//EN" "http://www.w3.org/Graphics/SVG/1.1/DTD/svg11.dtd">
<svg version="1.1" id="レイヤー_1" xmlns="http://www.w3.org/2000/svg" xmlns:xlink="http://www.w3.org/1999/xlink" x="0px"
	 y="0px" viewBox="0 0 59 50.1" style="enable-background:new 0 0 59 50.1;" xml:space="preserve">
<style type="text/css">
	.st0{fill:#017FDE;}
</style>
<path id="b_" class="st0" d="M35.6,26.8c-2.1-2.3-5.1-3.6-8.2-3.7c3.1-0.9,5.4-2.1,6.8-3.8c1.5-1.9,2.3-4.3,2.1-6.8
	c0-2.1-0.5-4.1-1.4-6c-1-1.7-2.4-3.1-4.2-4.1C28.9,1.5,27,0.8,25,0.5C21.1,0,17.3-0.1,13.4,0H0v50h13.9c4,0.1,8.1-0.1,12.1-0.6
	c2.2-0.3,4.2-1,6.2-2c2-1.1,3.7-2.7,4.7-4.7c1.1-2.2,1.7-4.6,1.7-7.1C38.5,32,37.6,29,35.6,26.8z M12.5,11.1h2.9
	c3.3,0,5.6,0.4,6.7,1.1c1.2,0.9,1.9,2.4,1.7,4c0.2,1.5-0.6,3-1.8,3.8c-1.2,0.7-3.5,1.1-6.8,1.1h-2.7L12.5,11.1L12.5,11.1z
	 M23.9,39.7c-1.3,0.8-3.6,1.2-6.7,1.2h-4.7V30h4.9c3.2,0,5.5,0.4,6.7,1.3s1.8,2.3,1.8,4.4S25.2,38.9,23.9,39.7L23.9,39.7z
	 M52.8,37.3c-3.5-0.1-6.4,2.7-6.4,6.2c-0.1,3.5,2.7,6.4,6.2,6.4c3.5,0.1,6.4-2.7,6.4-6.2v-0.1l0,0C59,40.2,56.2,37.4,52.8,37.3
	L52.8,37.3z M47.4,0h10.8v33.3H47.4V0z"/>
</svg>
