<?xml version="1.0" encoding="utf-8"?>
<!-- Generator: Adobe Illustrator 21.0.2, SVG Export Plug-In . SVG Version: 6.00 Build 0)  -->
<!DOCTYPE svg PUBLIC "-//W3C//DTD SVG 1.1//EN" "http://www.w3.org/Graphics/SVG/1.1/DTD/svg11.dtd">
<svg version="1.1" id="レイヤー_1" xmlns="http://www.w3.org/2000/svg" xmlns:xlink="http://www.w3.org/1999/xlink" x="0px"
	 y="0px" viewBox="0 0 79.5 31.5" style="enable-background:new 0 0 79.5 31.5;" xml:space="preserve">
<path id="シェイプ_6" d="M0,3.5c0-0.9,0.2-1.8,0.8-2.5c1-1.2,2.7-1.3,3.9-0.3c0.1,0.1,0.2,0.2,0.3,0.3c0.5,0.7,0.8,1.6,0.8,2.5
	v21.7h9.5c0.8,0,1.5,0.2,2.1,0.8c1.1,1.2,1.1,3.1,0,4.3c-0.6,0.5-1.3,0.8-2.1,0.8H3.3C2.4,31,1.5,30.7,0.9,30c-0.7-0.9-1-2-0.9-3.1
	L0,3.5L0,3.5z M21.3,3.5c0-0.9,0.2-1.8,0.8-2.5c1-1.2,2.7-1.3,3.9-0.3c0.1,0.1,0.2,0.2,0.3,0.3c0.5,0.7,0.8,1.6,0.8,2.5V28
	c0,0.9-0.2,1.8-0.8,2.5c-1,1.2-2.7,1.3-3.9,0.3c-0.1-0.1-0.2-0.2-0.3-0.3c-0.6-0.7-0.8-1.6-0.8-2.5V3.5z M32.2,4.1
	c-0.1-1.1,0.2-2.2,0.9-3.1c0.7-0.7,1.7-1,2.7-0.9c1.2,0,2.4,0.7,2.9,1.8l10,19.5h0.1v-18c0-2.2,0.9-3.3,2.8-3.3s2.8,1.1,2.8,3.3
	v23.8c0.1,1.1-0.2,2.2-0.8,3.2c-0.6,0.8-1.6,1.2-2.6,1.1c-0.7,0-1.3-0.1-2-0.4c-0.5-0.4-0.9-0.9-1.2-1.5l-9.9-19h-0.1v17.5
	c0,2.2-0.9,3.3-2.8,3.3c-1.8,0-2.8-1.1-2.8-3.3L32.2,4.1L32.2,4.1z M59.6,4.6c-0.1-1.1,0.2-2.2,0.9-3.1c0.7-0.7,1.6-1,2.5-0.9h13.4
	c0.8,0,1.5,0.2,2.1,0.6c1,1.3,1,3.1,0,4.3c-0.6,0.5-1.4,0.7-2.1,0.6H65.3v6.6H75c0.7,0,1.4,0.2,2,0.6c1,1.2,1,2.9,0,4.2
	c-0.6,0.4-1.3,0.6-2,0.6h-9.7v7.3h11.3c0.8,0,1.5,0.2,2.1,0.6c1,1.3,1,3.1,0,4.3c-0.6,0.5-1.4,0.7-2.1,0.6H62.9
	C62,31,61.1,30.7,60.4,30c-0.7-0.9-1-2-0.9-3.1L59.6,4.6L59.6,4.6z"/>
</svg>
