<svg xmlns="http://www.w3.org/2000/svg" width="36.031" height="47.032" viewBox="0 0 36.031 47.032">
  <metadata><?xpacket begin="﻿" id="W5M0MpCehiHzreSzNTczkc9d"?>
<x:xmpmeta xmlns:x="adobe:ns:meta/" x:xmptk="Adobe XMP Core 5.6-c138 79.159824, 2016/09/14-01:09:01        ">
   <rdf:RDF xmlns:rdf="http://www.w3.org/1999/02/22-rdf-syntax-ns#">
      <rdf:Description rdf:about=""/>
   </rdf:RDF>
</x:xmpmeta>
                                                                                                    
                                                                                                    
                                                                                                    
                                                                                                    
                                                                                                    
                                                                                                    
                                                                                                    
                                                                                                    
                                                                                                    
                                                                                                    
                                                                                                    
                                                                                                    
                                                                                                    
                                                                                                    
                                                                                                    
                                                                                                    
                                                                                                    
                                                                                                    
                                                                                                    
                                                                                                    
                           
<?xpacket end="w"?></metadata>
<defs>
    <style>
      .cls-1 {
        fill: #fff;
        fill-rule: evenodd;
      }
    </style>
  </defs>
  <path id="シェイプ_7" data-name="シェイプ 7" class="cls-1" d="M462.312,992.076v-0.138c3.806-1.136,6.789-4.8,6.789-10.142,0-6.92-5.687-10.846-11.851-10.846H435.971v47.01h19.475c11.88,0,16.539-7.41,16.539-14.26C471.985,996.307,467.955,993.242,462.312,992.076Zm-15.359-12.765h2.469c1.792,0,4.581-.205,6.108.685a4.922,4.922,0,0,1,2.254,4.249,5.434,5.434,0,0,1-1.923,4.25c-1.592,1.234-3.784,1.1-5.642,1.1h-3.266v-10.28ZM458.2,1008.23c-1.661,1.17-4.116,1.03-6.042,1.03h-5.2V997.58h5.667c1.727,0,3.85,0,5.379.89a5.949,5.949,0,0,1,2.585,4.8A6.056,6.056,0,0,1,458.2,1008.23Z" transform="translate(-435.969 -970.938)"/>
</svg>
